<?xml version="1.0" encoding="utf-8"?><svg xmlns="http://www.w3.org/2000/svg" xmlns:xlink="http://www.w3.org/1999/xlink"><symbol viewBox="0 0 478.174 478.174" id="dislike-action" xmlns="http://www.w3.org/2000/svg"><path d="M457.525 153.074c1.9-5.1 3.7-12 4.2-20 .7-14.1-2.8-33.9-22.7-51.9 1.3-9.2 1.3-23.8-6.8-38.3-10.7-19.2-31.6-32.2-62.2-38.7-20.5-4.4-47.4-5.3-80-2.8-65.7-1.3-129.7 6.8-133.3 7.3l-23.5 2.8c-6.8-4.8-15.1-7.6-24-7.6h-61c-23 0-41.6 18.7-41.6 41.6v162.5c0 23 18.7 41.6 41.6 41.6h61c7.2 0 13.9-1.8 19.8-5 4.2 9.2 10.4 19.7 19.6 29.4.5.5 1 1 1.6 1.4 31.4 24.1 68.4 110.9 81.5 146.3-1.3 11-2.6 34.8 8.4 47.7 4.9 5.7 11.7 8.8 19.3 8.8 7.7 0 34.3-1.8 50.9-24.7 15.7-21.8 16.6-54.4 2.6-97-11.8-35.8-12.9-51.7-12.5-58.1 5.4 1.2 10.7 2.3 15.8 3.2h.1c.9.2 22.9 5.1 49.2 6.3 37.4 1.8 64.5-4.7 80.3-19.2 21.8-19.9 19.2-45.3 12.7-61.5 5.6-7.3 12.4-19.2 13-34.4.4-13.8-4.2-27.1-14-39.7zm-348.3 69.6h-61c-8.1 0-14.6-6.6-14.6-14.6v-162.5c0-8.1 6.6-14.6 14.6-14.6h61c8.1 0 14.6 6.6 14.6 14.6v162.5c0 8.1-6.5 14.6-14.6 14.6zm321.7 9.7c0 .1 3.5 5.6 4.7 13.1 1.5 9.3-1.1 17-8.1 23.4-19.1 17.4-74.1 13.4-104.8 6.6-.4-.1-.8-.2-1.3-.3-5.5-1-11.4-2.2-17.4-3.5-6.4-2.3-15.2-2-21.8 3.9-13.3 11.8-11.8 38.6 4.9 89.5 11 33.4 11.4 58.6 1.2 72.7-8.6 11.9-22.8 13.4-28.2 13.5-2.4-4-3.1-17.7-1.3-29 .3-2.2.1-4.5-.6-6.7-1.9-5.1-45.8-125.3-90.7-160.9-11.7-12.7-16.8-27.6-18.6-34.3 1.2-3.9 1.9-8.1 1.9-12.4v-162.4c0-3-.3-6-.9-8.8l10.1-1.2h.1c.6-.1 65.7-8.5 130-7.1h1.4c30.3-2.4 54.8-1.7 72.9 2.2 22.4 4.8 37.2 13.2 44 25.1 7.1 12.3 3.2 25 2.9 26.2-2.1 5.6-.2 11.7 4.6 15.3 29.6 22.2 16 48.1 14.2 51.3-3.3 5.2-2.5 11.8 1.8 16.3 8.6 9 12.8 18 12.5 26.8-.4 13.1-10.5 22.9-11.2 23.5-5 4.3-5.9 11.6-2.3 17.2z"/></symbol><symbol viewBox="0 0 512 512" id="like" xmlns="http://www.w3.org/2000/svg"><path d="M53.333 224C23.936 224 0 247.936 0 277.333V448c0 29.397 23.936 53.333 53.333 53.333h64c12.011 0 23.061-4.053 32-10.795V224h-96zM512 304c0-12.821-5.077-24.768-13.888-33.579 9.963-10.901 15.04-25.515 13.653-40.725-2.496-27.115-26.923-48.363-55.637-48.363H324.352c6.528-19.819 16.981-56.149 16.981-85.333 0-46.272-39.317-85.333-64-85.333-22.165 0-37.995 12.48-38.677 12.992A10.72 10.72 0 00234.667 32v72.341l-61.44 133.099-2.56 1.301v228.651C188.032 475.584 210.005 480 224 480h195.819c23.232 0 43.563-15.659 48.341-37.269 2.453-11.115 1.024-22.315-3.861-32.043 15.765-7.936 26.368-24.171 26.368-42.688 0-7.552-1.728-14.784-5.013-21.333C501.419 338.731 512 322.496 512 304z"/></symbol><symbol viewBox="0 0 478.2 478.2" id="like-action" xmlns="http://www.w3.org/2000/svg"><path d="M457.575 325.1c9.8-12.5 14.5-25.9 13.9-39.7-.6-15.2-7.4-27.1-13-34.4 6.5-16.2 9-41.7-12.7-61.5-15.9-14.5-42.9-21-80.3-19.2-26.3 1.2-48.3 6.1-49.2 6.3h-.1c-5 .9-10.3 2-15.7 3.2-.4-6.4.7-22.3 12.5-58.1 14-42.6 13.2-75.2-2.6-97-16.6-22.9-43.1-24.7-50.9-24.7-7.5 0-14.4 3.1-19.3 8.8-11.1 12.9-9.8 36.7-8.4 47.7-13.2 35.4-50.2 122.2-81.5 146.3-.6.4-1.1.9-1.6 1.4-9.2 9.7-15.4 20.2-19.6 29.4-5.9-3.2-12.6-5-19.8-5h-61c-23 0-41.6 18.7-41.6 41.6v162.5c0 23 18.7 41.6 41.6 41.6h61c8.9 0 17.2-2.8 24-7.6l23.5 2.8c3.6.5 67.6 8.6 133.3 7.3 11.9.9 23.1 1.4 33.5 1.4 17.9 0 33.5-1.4 46.5-4.2 30.6-6.5 51.5-19.5 62.1-38.6 8.1-14.6 8.1-29.1 6.8-38.3 19.9-18 23.4-37.9 22.7-51.9-.4-8.1-2.2-15-4.1-20.1zm-409.3 122.2c-8.1 0-14.6-6.6-14.6-14.6V270.1c0-8.1 6.6-14.6 14.6-14.6h61c8.1 0 14.6 6.6 14.6 14.6v162.5c0 8.1-6.6 14.6-14.6 14.6h-61v.1zm383.7-133.9c-4.2 4.4-5 11.1-1.8 16.3 0 .1 4.1 7.1 4.6 16.7.7 13.1-5.6 24.7-18.8 34.6-4.7 3.6-6.6 9.8-4.6 15.4 0 .1 4.3 13.3-2.7 25.8-6.7 12-21.6 20.6-44.2 25.4-18.1 3.9-42.7 4.6-72.9 2.2h-1.4c-64.3 1.4-129.3-7-130-7.1h-.1l-10.1-1.2c.6-2.8.9-5.8.9-8.8V270.1c0-4.3-.7-8.5-1.9-12.4 1.8-6.7 6.8-21.6 18.6-34.3 44.9-35.6 88.8-155.7 90.7-160.9.8-2.1 1-4.4.6-6.7-1.7-11.2-1.1-24.9 1.3-29 5.3.1 19.6 1.6 28.2 13.5 10.2 14.1 9.8 39.3-1.2 72.7-16.8 50.9-18.2 77.7-4.9 89.5 6.6 5.9 15.4 6.2 21.8 3.9 6.1-1.4 11.9-2.6 17.4-3.5.4-.1.9-.2 1.3-.3 30.7-6.7 85.7-10.8 104.8 6.6 16.2 14.8 4.7 34.4 3.4 36.5-3.7 5.6-2.6 12.9 2.4 17.4.1.1 10.6 10 11.1 23.3.4 8.9-3.8 18-12.5 27z"/></symbol><symbol viewBox="0 0 512 512" id="medal" xmlns="http://www.w3.org/2000/svg"><path d="M218.123 0H166c-8.284 0-15 6.716-15 15v220.695a15 15 0 005.565 11.661l61.557 49.804H256V31.207zM346 0h-52.123L256 31.207V297.16h37.877l61.557-49.804a14.997 14.997 0 005.565-11.661V15C361 6.716 354.284 0 346 0zm0 235.695h.01z"/><path d="M218.123.161V297.16l28.443 23.012a14.972 14.972 0 009.435 3.339l13.845-167.582L256 .161z"/><path d="M256 .161v323.35c3.342 0 6.684-1.113 9.435-3.339l28.443-23.012V.161z"/><path d="M241.034 305.104l-19.588 60.285h-63.388a15.736 15.736 0 00-9.25 28.468l51.282 37.258-19.588 60.285a15.737 15.737 0 0024.217 17.594L256 471.736l13.845-66.858L256 294.23c-6.818 0-12.86 4.39-14.966 10.874z"/><path d="M368.908 376.263a15.735 15.735 0 00-14.966-10.874h-63.388l-19.588-60.285A15.735 15.735 0 00256 294.23v177.506l51.281 37.258c4.316 3.006 12.112 4.608 18.5 0 5.529-3.989 7.823-11.11 5.717-17.594l-19.588-60.285 51.282-37.258a15.736 15.736 0 005.716-17.594z"/></symbol><symbol viewBox="0 0 426.667 426.667" id="plus" xmlns="http://www.w3.org/2000/svg"><path d="M405.332 192H234.668V21.332C234.668 9.559 225.109 0 213.332 0 201.559 0 192 9.559 192 21.332V192H21.332C9.559 192 0 201.559 0 213.332c0 11.777 9.559 21.336 21.332 21.336H192v170.664c0 11.777 9.559 21.336 21.332 21.336 11.777 0 21.336-9.559 21.336-21.336V234.668h170.664c11.777 0 21.336-9.559 21.336-21.336 0-11.773-9.559-21.332-21.336-21.332zm0 0"/></symbol><symbol viewBox="0 0 56.966 56.966" id="search" xmlns="http://www.w3.org/2000/svg"><path d="M55.146 51.887L41.588 37.786A22.926 22.926 0 0046.984 23c0-12.682-10.318-23-23-23s-23 10.318-23 23 10.318 23 23 23c4.761 0 9.298-1.436 13.177-4.162l13.661 14.208c.571.593 1.339.92 2.162.92.779 0 1.518-.297 2.079-.837a3.004 3.004 0 00.083-4.242zM23.984 6c9.374 0 17 7.626 17 17s-7.626 17-17 17-17-7.626-17-17 7.626-17 17-17z"/></symbol><symbol viewBox="0 0 460.8 460.8" id="user" xmlns="http://www.w3.org/2000/svg"><path d="M230.432 0c-65.829 0-119.641 53.812-119.641 119.641s53.812 119.641 119.641 119.641 119.641-53.812 119.641-119.641S296.261 0 230.432 0zm205.323 334.89c-3.135-7.837-7.314-15.151-12.016-21.943-24.033-35.527-61.126-59.037-102.922-64.784-5.224-.522-10.971.522-15.151 3.657-21.943 16.196-48.065 24.555-75.233 24.555s-53.29-8.359-75.233-24.555c-4.18-3.135-9.927-4.702-15.151-3.657-41.796 5.747-79.412 29.257-102.922 64.784-4.702 6.792-8.882 14.629-12.016 21.943-1.567 3.135-1.045 6.792.522 9.927 4.18 7.314 9.404 14.629 14.106 20.898 7.314 9.927 15.151 18.808 24.033 27.167 7.314 7.314 15.673 14.106 24.033 20.898 41.273 30.825 90.906 47.02 142.106 47.02s100.833-16.196 142.106-47.02c8.359-6.269 16.718-13.584 24.033-20.898 8.359-8.359 16.718-17.241 24.033-27.167 5.224-6.792 9.927-13.584 14.106-20.898 2.611-3.135 3.133-6.793 1.566-9.927z"/></symbol></svg>