<?xml version="1.0" encoding="utf-8"?><svg xmlns="http://www.w3.org/2000/svg" xmlns:xlink="http://www.w3.org/1999/xlink"><symbol viewBox="0 0 512 512" id="like" xmlns="http://www.w3.org/2000/svg"><path d="M53.333 224C23.936 224 0 247.936 0 277.333V448c0 29.397 23.936 53.333 53.333 53.333h64c12.011 0 23.061-4.053 32-10.795V224h-96zM512 304c0-12.821-5.077-24.768-13.888-33.579 9.963-10.901 15.04-25.515 13.653-40.725-2.496-27.115-26.923-48.363-55.637-48.363H324.352c6.528-19.819 16.981-56.149 16.981-85.333 0-46.272-39.317-85.333-64-85.333-22.165 0-37.995 12.48-38.677 12.992A10.72 10.72 0 00234.667 32v72.341l-61.44 133.099-2.56 1.301v228.651C188.032 475.584 210.005 480 224 480h195.819c23.232 0 43.563-15.659 48.341-37.269 2.453-11.115 1.024-22.315-3.861-32.043 15.765-7.936 26.368-24.171 26.368-42.688 0-7.552-1.728-14.784-5.013-21.333C501.419 338.731 512 322.496 512 304z"/></symbol><symbol viewBox="0 0 512 512" id="medal" xmlns="http://www.w3.org/2000/svg"><path d="M218.123 0H166c-8.284 0-15 6.716-15 15v220.695a15 15 0 005.565 11.661l61.557 49.804H256V31.207zM346 0h-52.123L256 31.207V297.16h37.877l61.557-49.804a14.997 14.997 0 005.565-11.661V15C361 6.716 354.284 0 346 0zm0 235.695h.01z"/><path d="M218.123.161V297.16l28.443 23.012a14.972 14.972 0 009.435 3.339l13.845-167.582L256 .161z"/><path d="M256 .161v323.35c3.342 0 6.684-1.113 9.435-3.339l28.443-23.012V.161z"/><path d="M241.034 305.104l-19.588 60.285h-63.388a15.736 15.736 0 00-9.25 28.468l51.282 37.258-19.588 60.285a15.737 15.737 0 0024.217 17.594L256 471.736l13.845-66.858L256 294.23c-6.818 0-12.86 4.39-14.966 10.874z"/><path d="M368.908 376.263a15.735 15.735 0 00-14.966-10.874h-63.388l-19.588-60.285A15.735 15.735 0 00256 294.23v177.506l51.281 37.258c4.316 3.006 12.112 4.608 18.5 0 5.529-3.989 7.823-11.11 5.717-17.594l-19.588-60.285 51.282-37.258a15.736 15.736 0 005.716-17.594z"/></symbol><symbol viewBox="0 0 426.667 426.667" id="plus" xmlns="http://www.w3.org/2000/svg"><path d="M405.332 192H234.668V21.332C234.668 9.559 225.109 0 213.332 0 201.559 0 192 9.559 192 21.332V192H21.332C9.559 192 0 201.559 0 213.332c0 11.777 9.559 21.336 21.332 21.336H192v170.664c0 11.777 9.559 21.336 21.332 21.336 11.777 0 21.336-9.559 21.336-21.336V234.668h170.664c11.777 0 21.336-9.559 21.336-21.336 0-11.773-9.559-21.332-21.336-21.332zm0 0"/></symbol><symbol viewBox="0 0 56.966 56.966" id="search" xmlns="http://www.w3.org/2000/svg"><path d="M55.146 51.887L41.588 37.786A22.926 22.926 0 0046.984 23c0-12.682-10.318-23-23-23s-23 10.318-23 23 10.318 23 23 23c4.761 0 9.298-1.436 13.177-4.162l13.661 14.208c.571.593 1.339.92 2.162.92.779 0 1.518-.297 2.079-.837a3.004 3.004 0 00.083-4.242zM23.984 6c9.374 0 17 7.626 17 17s-7.626 17-17 17-17-7.626-17-17 7.626-17 17-17z"/></symbol></svg>